<?xml version="1.0" encoding="utf-8"?>
<!-- created with bpmn-js / http://bpmn.io -->
<!DOCTYPE svg PUBLIC "-//W3C//DTD SVG 1.1//EN" "http://www.w3.org/Graphics/SVG/1.1/DTD/svg11.dtd">
<svg xmlns="http://www.w3.org/2000/svg" xmlns:xlink="http://www.w3.org/1999/xlink" width="1078" height="154.68849182128906" viewBox="26 227.31150817871094 1078 154.68849182128906" version="1.1"><defs><marker id="sequenceflow-end-white-black-2iv60ood8ncm57cexjbp7d4ir" viewBox="0 0 20 20" refX="11" refY="10" markerWidth="10" markerHeight="10" orient="auto"><path d="M 1 5 L 11 10 L 1 15 Z" style="fill: black; stroke-width: 1px; stroke-linecap: round; stroke-dasharray: 10000px, 1px; stroke: black;"/></marker></defs><g class="djs-group"><g class="djs-element djs-connection" data-element-id="Flow_1tlluwv" style="display: block;"><g class="djs-visual"><path d="m  630,305L630,260 L1080,260 L1080,312 " style="fill: none; stroke-width: 2px; stroke: black; stroke-linejoin: round; marker-end: url('#sequenceflow-end-white-black-2iv60ood8ncm57cexjbp7d4ir');"/></g><polyline points="630,305 630,260 1080,260 1080,312 " style="fill: none; stroke-opacity: 0; stroke: white; stroke-width: 15px;" class="djs-hit djs-hit-stroke"/><rect x="624" y="254" width="462" height="64" style="fill: none;" class="djs-outline"/></g></g><g class="djs-group"><g class="djs-element djs-connection" data-element-id="Flow_051t3qw" style="display: block;"><g class="djs-visual"><path d="m  991,330L1062,330 " style="fill: none; stroke-width: 2px; stroke: black; stroke-linejoin: round; marker-end: url('#sequenceflow-end-white-black-2iv60ood8ncm57cexjbp7d4ir');"/></g><polyline points="991,330 1062,330 " style="fill: none; stroke-opacity: 0; stroke: white; stroke-width: 15px;" class="djs-hit djs-hit-stroke"/><rect x="985" y="324" width="83" height="12" style="fill: none;" class="djs-outline"/></g></g><g class="djs-group"><g class="djs-element djs-connection" data-element-id="Flow_16ee8w8" style="display: block;"><g class="djs-visual"><path d="m  821,330L889,330 " style="fill: none; stroke-width: 2px; stroke: black; stroke-linejoin: round; marker-end: url('#sequenceflow-end-white-black-2iv60ood8ncm57cexjbp7d4ir');"/></g><polyline points="821,330 889,330 " style="fill: none; stroke-opacity: 0; stroke: white; stroke-width: 15px;" class="djs-hit djs-hit-stroke"/><rect x="815" y="324" width="80" height="12" style="fill: none;" class="djs-outline"/></g></g><g class="djs-group"><g class="djs-element djs-connection" data-element-id="Flow_18r7u33" style="display: block;"><g class="djs-visual"><path d="m  655,330L719,330 " style="fill: none; stroke-width: 2px; stroke: black; stroke-linejoin: round; marker-end: url('#sequenceflow-end-white-black-2iv60ood8ncm57cexjbp7d4ir');"/></g><polyline points="655,330 719,330 " style="fill: none; stroke-opacity: 0; stroke: white; stroke-width: 15px;" class="djs-hit djs-hit-stroke"/><rect x="649" y="324" width="76" height="12" style="fill: none;" class="djs-outline"/></g></g><g class="djs-group"><g class="djs-element djs-connection" data-element-id="Flow_1mydm3x" style="display: block;"><g class="djs-visual"><path d="m  541,330L605,330 " style="fill: none; stroke-width: 2px; stroke: black; stroke-linejoin: round; marker-end: url('#sequenceflow-end-white-black-2iv60ood8ncm57cexjbp7d4ir');"/></g><polyline points="541,330 605,330 " style="fill: none; stroke-opacity: 0; stroke: white; stroke-width: 15px;" class="djs-hit djs-hit-stroke"/><rect x="535" y="324" width="76" height="12" style="fill: none;" class="djs-outline"/></g></g><g class="djs-group"><g class="djs-element djs-connection" data-element-id="Flow_0f8qjuw" style="display: block;"><g class="djs-visual"><path d="m  381,330L439,330 " style="fill: none; stroke-width: 2px; stroke: black; stroke-linejoin: round; marker-end: url('#sequenceflow-end-white-black-2iv60ood8ncm57cexjbp7d4ir');"/></g><polyline points="381,330 439,330 " style="fill: none; stroke-opacity: 0; stroke: white; stroke-width: 15px;" class="djs-hit djs-hit-stroke"/><rect x="375" y="324" width="70" height="12" style="fill: none;" class="djs-outline"/></g></g><g class="djs-group"><g class="djs-element djs-connection" data-element-id="Flow_1g1pd9z" style="display: block;"><g class="djs-visual"><path d="m  221,330L279,330 " style="fill: none; stroke-width: 2px; stroke: black; stroke-linejoin: round; marker-end: url('#sequenceflow-end-white-black-2iv60ood8ncm57cexjbp7d4ir');"/></g><polyline points="221,330 279,330 " style="fill: none; stroke-opacity: 0; stroke: white; stroke-width: 15px;" class="djs-hit djs-hit-stroke"/><rect x="215" y="324" width="70" height="12" style="fill: none;" class="djs-outline"/></g></g><g class="djs-group"><g class="djs-element djs-connection" data-element-id="Flow_01jlr1v" style="display: block;"><g class="djs-visual"><path d="m  68,330L119,330 " style="fill: none; stroke-width: 2px; stroke: black; stroke-linejoin: round; marker-end: url('#sequenceflow-end-white-black-2iv60ood8ncm57cexjbp7d4ir');"/></g><polyline points="68,330 119,330 " style="fill: none; stroke-opacity: 0; stroke: white; stroke-width: 15px;" class="djs-hit djs-hit-stroke"/><rect x="62" y="324" width="63" height="12" style="fill: none;" class="djs-outline"/></g></g><g class="djs-group"><g class="djs-element djs-shape" data-element-id="Event_0s0epix" transform="matrix(1, 0, 0, 1, 32, 312)" style="display: block;"><g class="djs-visual"><circle cx="18" cy="18" r="18" style="stroke: black; stroke-width: 2px; fill: white; fill-opacity: 0.95;"/></g><rect style="fill: none; stroke-opacity: 0; stroke: white; stroke-width: 15px;" class="djs-hit djs-hit-all" x="0" y="0" width="36" height="36"/><rect x="-6" y="-6" width="48" height="48" style="fill: none;" class="djs-outline"/></g></g><g class="djs-group"><g class="djs-element djs-shape" data-element-id="ChoreographyTask_09i1hhf" transform="matrix(1, 0, 0, 1, 120, 290)" style="display: block;"><g class="djs-visual"><path d="M10,0a10,10,0,0,0,-10,10l0,60a10,10,0,0,0,10,10l80,0a10,10,0,0,0,10,-10l0,-60a10,10,0,0,0,-10,-10z" style="fill: white; fill-opacity: 0.95; stroke: black; stroke-width: 2px;"/><text style="font-family: Arial, sans-serif; font-size: 12px; font-weight: normal; fill: black;" lineHeight="1.2" class="djs-label" transform="translate(0, 20)"><tspan x="6.483333587646484" y="23.6">Receive an offer</tspan></text></g><rect style="fill: none; stroke-opacity: 0; stroke: white; stroke-width: 15px;" class="djs-hit djs-hit-all" x="0" y="0" width="100" height="80"/><rect x="-6" y="-6" width="112" height="92" style="fill: none;" class="djs-outline"/></g><g class="djs-children"><g class="djs-group"><g class="djs-element djs-shape" data-element-id="Participant_08lr28o_ChoreographyTask_09i1hhf" transform="matrix(1, 0, 0, 1, 120, 290)" style="display: block;"><g class="djs-visual"><path d="M0,20l100,0" style="stroke: black; stroke-width: 2px;"/><text style="font-family: Arial, sans-serif; font-size: 12px; font-weight: normal; fill: black;" lineHeight="1.2" class="djs-label" transform="translate(0, 0)"><tspan x="8.25" y="13.6">Flight Company</tspan></text></g><rect style="fill: none; stroke-opacity: 0; stroke: white; stroke-width: 15px;" class="djs-hit djs-hit-all" x="0" y="0" width="100" height="20"/><rect x="-6" y="-6" width="112" height="32" style="fill: none;" class="djs-outline"/></g><g class="djs-children"><g class="djs-group"><g class="djs-element djs-shape" data-element-id="Message_046my8o" transform="matrix(1, 0, 0, 1, 152.5, 245)" style="display: block;"><g class="djs-visual"><path d="M17.5,25l0,20" style="stroke: black; stroke-width: 2px; stroke-dasharray: 0px, 4px; stroke-linecap: round;"/><path d="M0,0l0,25l35,0l0,-25zM0,0l17.5,15l17.5,-15" style="stroke: black; stroke-width: 2px; fill: white; fill-opacity: 0.95;"/><text style="font-family: Arial, sans-serif; font-size: 12px; font-weight: normal; fill: black;" lineHeight="1.2" class="djs-label" transform="translate(-32.5, -25)"><tspan x="5.416667938232422" y="16.1">Last Minute offer</tspan></text></g><rect style="fill: none; stroke-opacity: 0; stroke: white; stroke-width: 15px;" class="djs-hit djs-hit-all" x="0" y="0" width="35" height="25"/><rect x="-6" y="-6" width="47" height="37" style="fill: none;" class="djs-outline"/></g></g></g></g><g class="djs-group"><g class="djs-element djs-shape" data-element-id="Participant_0mgz9si_ChoreographyTask_09i1hhf" transform="matrix(1, 0, 0, 1, 120, 350)" style="display: block;"><g class="djs-visual"><path d="M100,0l-100,0l0,10a10,10,0,0,0,10,10l80,0a10,10,0,0,0,10,-10z" style="fill: black; fill-opacity: 0.1725;"/><path d="M0,0l100,0" style="stroke: black; stroke-width: 2px;"/><text style="font-family: Arial, sans-serif; font-size: 12px; font-weight: normal; fill: black;" lineHeight="1.2" class="djs-label" transform="translate(0, 0)"><tspan x="22.475000381469727" y="13.6">ACMESKy</tspan></text></g><rect style="fill: none; stroke-opacity: 0; stroke: white; stroke-width: 15px;" class="djs-hit djs-hit-all" x="0" y="0" width="100" height="20"/><rect x="-6" y="-6" width="112" height="32" style="fill: none;" class="djs-outline"/></g></g></g></g><g class="djs-group"><g class="djs-element djs-shape" data-element-id="ChoreographyTask_1ons1sh" transform="matrix(1, 0, 0, 1, 280, 290)" style="display: block;"><g class="djs-visual"><path d="M10,0a10,10,0,0,0,-10,10l0,60a10,10,0,0,0,10,10l80,0a10,10,0,0,0,10,-10l0,-60a10,10,0,0,0,-10,-10z" style="fill: white; fill-opacity: 0.95; stroke: black; stroke-width: 2px;"/><text style="font-family: Arial, sans-serif; font-size: 12px; font-weight: normal; fill: black;" lineHeight="1.2" class="djs-label" transform="translate(0, 20)"><tspan x="1.7916679382324219" y="23.6">Notify Prontogram</tspan></text></g><rect style="fill: none; stroke-opacity: 0; stroke: white; stroke-width: 15px;" class="djs-hit djs-hit-all" x="0" y="0" width="100" height="80"/><rect x="-6" y="-6" width="112" height="92" style="fill: none;" class="djs-outline"/></g><g class="djs-children"><g class="djs-group"><g class="djs-element djs-shape" data-element-id="Participant_0mgz9si_ChoreographyTask_1ons1sh" transform="matrix(1, 0, 0, 1, 280, 290)" style="display: block;"><g class="djs-visual"><path d="M0,20l100,0" style="stroke: black; stroke-width: 2px;"/><text style="font-family: Arial, sans-serif; font-size: 12px; font-weight: normal; fill: black;" lineHeight="1.2" class="djs-label" transform="translate(0, 0)"><tspan x="22.475000381469727" y="13.6">ACMESKy</tspan></text></g><rect style="fill: none; stroke-opacity: 0; stroke: white; stroke-width: 15px;" class="djs-hit djs-hit-all" x="0" y="0" width="100" height="20"/><rect x="-6" y="-6" width="112" height="32" style="fill: none;" class="djs-outline"/></g><g class="djs-children"><g class="djs-group"><g class="djs-element djs-shape" data-element-id="Message_1p84a7u" transform="matrix(1, 0, 0, 1, 312.5, 245)" style="display: none;"><g class="djs-visual"><path d="M17.5,25l0,20" style="stroke: black; stroke-width: 2px; stroke-dasharray: 0px, 4px; stroke-linecap: round;"/><path d="M0,0l0,25l35,0l0,-25zM0,0l17.5,15l17.5,-15" style="stroke: black; stroke-width: 2px; fill: white; fill-opacity: 0.95;"/></g><rect style="fill: none; stroke-opacity: 0; stroke: white; stroke-width: 15px;" class="djs-hit djs-hit-all" x="0" y="0" width="35" height="25"/><rect x="-6" y="-6" width="47" height="37" style="fill: none;" class="djs-outline"/></g></g></g></g><g class="djs-group"><g class="djs-element djs-shape" data-element-id="Participant_06fz9b3_ChoreographyTask_1ons1sh" transform="matrix(1, 0, 0, 1, 280, 350)" style="display: block;"><g class="djs-visual"><path d="M100,0l-100,0l0,10a10,10,0,0,0,10,10l80,0a10,10,0,0,0,10,-10z" style="fill: black; fill-opacity: 0.1725;"/><path d="M0,0l100,0" style="stroke: black; stroke-width: 2px;"/><text style="font-family: Arial, sans-serif; font-size: 12px; font-weight: normal; fill: black;" lineHeight="1.2" class="djs-label" transform="translate(0, 0)"><tspan x="18.84166717529297" y="13.6">Prontogram</tspan></text></g><rect style="fill: none; stroke-opacity: 0; stroke: white; stroke-width: 15px;" class="djs-hit djs-hit-all" x="0" y="0" width="100" height="20"/><rect x="-6" y="-6" width="112" height="32" style="fill: none;" class="djs-outline"/></g></g></g></g><g class="djs-group"><g class="djs-element djs-shape" data-element-id="ChoreographyTask_029qcih" transform="matrix(1, 0, 0, 1, 440, 290)" style="display: block;"><g class="djs-visual"><path d="M10,0a10,10,0,0,0,-10,10l0,60a10,10,0,0,0,10,10l80,0a10,10,0,0,0,10,-10l0,-60a10,10,0,0,0,-10,-10z" style="fill: white; fill-opacity: 0.95; stroke: black; stroke-width: 2px;"/><text style="font-family: Arial, sans-serif; font-size: 12px; font-weight: normal; fill: black;" lineHeight="1.2" class="djs-label" transform="translate(0, 20)"><tspan x="21.28333282470703" y="23.6">Notify user</tspan></text></g><rect style="fill: none; stroke-opacity: 0; stroke: white; stroke-width: 15px;" class="djs-hit djs-hit-all" x="0" y="0" width="100" height="80"/><rect x="-6" y="-6" width="112" height="92" style="fill: none;" class="djs-outline"/></g><g class="djs-children"><g class="djs-group"><g class="djs-element djs-shape" data-element-id="Participant_06fz9b3_ChoreographyTask_029qcih" transform="matrix(1, 0, 0, 1, 440, 290)" style="display: block;"><g class="djs-visual"><path d="M0,20l100,0" style="stroke: black; stroke-width: 2px;"/><text style="font-family: Arial, sans-serif; font-size: 12px; font-weight: normal; fill: black;" lineHeight="1.2" class="djs-label" transform="translate(0, 0)"><tspan x="18.84166717529297" y="13.6">Prontogram</tspan></text></g><rect style="fill: none; stroke-opacity: 0; stroke: white; stroke-width: 15px;" class="djs-hit djs-hit-all" x="0" y="0" width="100" height="20"/><rect x="-6" y="-6" width="112" height="32" style="fill: none;" class="djs-outline"/></g><g class="djs-children"><g class="djs-group"><g class="djs-element djs-shape" data-element-id="Message_0qfyis6" transform="matrix(1, 0, 0, 1, 472.5, 245)" style="display: none;"><g class="djs-visual"><path d="M17.5,25l0,20" style="stroke: black; stroke-width: 2px; stroke-dasharray: 0px, 4px; stroke-linecap: round;"/><path d="M0,0l0,25l35,0l0,-25zM0,0l17.5,15l17.5,-15" style="stroke: black; stroke-width: 2px; fill: white; fill-opacity: 0.95;"/></g><rect style="fill: none; stroke-opacity: 0; stroke: white; stroke-width: 15px;" class="djs-hit djs-hit-all" x="0" y="0" width="35" height="25"/><rect x="-6" y="-6" width="47" height="37" style="fill: none;" class="djs-outline"/></g></g></g></g><g class="djs-group"><g class="djs-element djs-shape" data-element-id="Participant_0cbclcz_ChoreographyTask_029qcih" transform="matrix(1, 0, 0, 1, 440, 350)" style="display: block;"><g class="djs-visual"><path d="M100,0l-100,0l0,10a10,10,0,0,0,10,10l80,0a10,10,0,0,0,10,-10z" style="fill: black; fill-opacity: 0.1725;"/><path d="M0,0l100,0" style="stroke: black; stroke-width: 2px;"/><text style="font-family: Arial, sans-serif; font-size: 12px; font-weight: normal; fill: black;" lineHeight="1.2" class="djs-label" transform="translate(0, 0)"><tspan x="37.333333015441895" y="13.6">User</tspan></text></g><rect style="fill: none; stroke-opacity: 0; stroke: white; stroke-width: 15px;" class="djs-hit djs-hit-all" x="0" y="0" width="100" height="20"/><rect x="-6" y="-6" width="112" height="32" style="fill: none;" class="djs-outline"/></g></g></g></g><g class="djs-group"><g class="djs-element djs-shape" data-element-id="Gateway_0tt8hst" transform="matrix(1, 0, 0, 1, 605, 305)" style="display: block;"><g class="djs-visual"><polygon points="25,0 50,25 25,50 0,25" style="stroke: black; stroke-width: 2px; fill: white; fill-opacity: 0.95;"/><path d="m 16,15 7.42857142857143,9.714285714285715 -7.42857142857143,9.714285714285715 3.428571428571429,0 5.714285714285715,-7.464228571428572 5.714285714285715,7.464228571428572 3.428571428571429,0 -7.42857142857143,-9.714285714285715 7.42857142857143,-9.714285714285715 -3.428571428571429,0 -5.714285714285715,7.464228571428572 -5.714285714285715,-7.464228571428572 -3.428571428571429,0 z" style="fill: black; stroke-width: 1px; stroke: black;"/></g><rect style="fill: none; stroke-opacity: 0; stroke: white; stroke-width: 15px;" class="djs-hit djs-hit-all" x="0" y="0" width="50" height="50"/><rect x="-6" y="-6" width="62" height="62" style="fill: none;" class="djs-outline"/></g></g><g class="djs-group"><g class="djs-element djs-shape" data-element-id="Gateway_0tt8hst_label" transform="matrix(1, 0, 0, 1, 596, 362)" style="display: block;"><g class="djs-visual"><text style="font-family: Arial, sans-serif; font-size: 11px; font-weight: normal; fill: black;" lineHeight="1.2" class="djs-label"><tspan x="0" y="9.899999999999999">Use the offer?</tspan></text></g><rect style="fill: none; stroke-opacity: 0; stroke: white; stroke-width: 15px;" class="djs-hit djs-hit-all" x="0" y="0" width="69" height="14"/><rect x="-6" y="-6" width="81" height="26" style="fill: none;" class="djs-outline"/></g></g><g class="djs-group"><g class="djs-element djs-shape" data-element-id="ChoreographyTask_0nshwpn" transform="matrix(1, 0, 0, 1, 720, 290)" style="display: block;"><g class="djs-visual"><path d="M10,0a10,10,0,0,0,-10,10l0,60a10,10,0,0,0,10,10l80,0a10,10,0,0,0,10,-10l0,-60a10,10,0,0,0,-10,-10z" style="fill: white; fill-opacity: 0.95; stroke: black; stroke-width: 2px;"/><text style="font-family: Arial, sans-serif; font-size: 12px; font-weight: normal; fill: black;" lineHeight="1.2" class="djs-label" transform="translate(0, 20)"><tspan x="16.641666412353516" y="23.6">Accept Offer</tspan></text></g><rect style="fill: none; stroke-opacity: 0; stroke: white; stroke-width: 15px;" class="djs-hit djs-hit-all" x="0" y="0" width="100" height="80"/><rect x="-6" y="-6" width="112" height="92" style="fill: none;" class="djs-outline"/></g><g class="djs-children"><g class="djs-group"><g class="djs-element djs-shape" data-element-id="Participant_0cbclcz_ChoreographyTask_0nshwpn" transform="matrix(1, 0, 0, 1, 720, 290)" style="display: block;"><g class="djs-visual"><path d="M0,20l100,0" style="stroke: black; stroke-width: 2px;"/><text style="font-family: Arial, sans-serif; font-size: 12px; font-weight: normal; fill: black;" lineHeight="1.2" class="djs-label" transform="translate(0, 0)"><tspan x="37.333333015441895" y="13.6">User</tspan></text></g><rect style="fill: none; stroke-opacity: 0; stroke: white; stroke-width: 15px;" class="djs-hit djs-hit-all" x="0" y="0" width="100" height="20"/><rect x="-6" y="-6" width="112" height="32" style="fill: none;" class="djs-outline"/></g><g class="djs-children"><g class="djs-group"><g class="djs-element djs-shape" data-element-id="Message_1kiplj0" transform="matrix(1, 0, 0, 1, 752.5, 245)" style="display: none;"><g class="djs-visual"><path d="M17.5,25l0,20" style="stroke: black; stroke-width: 2px; stroke-dasharray: 0px, 4px; stroke-linecap: round;"/><path d="M0,0l0,25l35,0l0,-25zM0,0l17.5,15l17.5,-15" style="stroke: black; stroke-width: 2px; fill: white; fill-opacity: 0.95;"/></g><rect style="fill: none; stroke-opacity: 0; stroke: white; stroke-width: 15px;" class="djs-hit djs-hit-all" x="0" y="0" width="35" height="25"/><rect x="-6" y="-6" width="47" height="37" style="fill: none;" class="djs-outline"/></g></g></g></g><g class="djs-group"><g class="djs-element djs-shape" data-element-id="Participant_06qakjv_ChoreographyTask_0nshwpn" transform="matrix(1, 0, 0, 1, 720, 350)" style="display: block;"><g class="djs-visual"><path d="M100,0l-100,0l0,10a10,10,0,0,0,10,10l80,0a10,10,0,0,0,10,-10z" style="fill: black; fill-opacity: 0.1725;"/><path d="M0,0l100,0" style="stroke: black; stroke-width: 2px;"/><text style="font-family: Arial, sans-serif; font-size: 12px; font-weight: normal; fill: black;" lineHeight="1.2" class="djs-label" transform="translate(0, 0)"><tspan x="23.008333206176758" y="13.6">ACMESky</tspan></text></g><rect style="fill: none; stroke-opacity: 0; stroke: white; stroke-width: 15px;" class="djs-hit djs-hit-all" x="0" y="0" width="100" height="20"/><rect x="-6" y="-6" width="112" height="32" style="fill: none;" class="djs-outline"/></g></g></g></g><g class="djs-group"><g class="djs-element djs-shape" data-element-id="ChoreographyTask_13smr82" transform="matrix(1, 0, 0, 1, 890, 290)" style="display: block;"><g class="djs-visual"><path d="M10,0a10,10,0,0,0,-10,10l0,60a10,10,0,0,0,10,10l80,0a10,10,0,0,0,10,-10l0,-60a10,10,0,0,0,-10,-10z" style="fill: white; fill-opacity: 0.95; stroke: black; stroke-width: 2px;"/><text style="font-family: Arial, sans-serif; font-size: 12px; font-weight: normal; fill: black;" lineHeight="1.2" class="djs-label" transform="translate(0, 20)"><tspan x="16.733333587646484" y="16.4">Notify Flight </tspan><tspan x="24.46666717529297" y="30.799999999999997">Company</tspan></text></g><rect style="fill: none; stroke-opacity: 0; stroke: white; stroke-width: 15px;" class="djs-hit djs-hit-all" x="0" y="0" width="100" height="80"/><rect x="-6" y="-6" width="112" height="92" style="fill: none;" class="djs-outline"/></g><g class="djs-children"><g class="djs-group"><g class="djs-element djs-shape" data-element-id="Participant_06qakjv_ChoreographyTask_13smr82" transform="matrix(1, 0, 0, 1, 890, 290)" style="display: block;"><g class="djs-visual"><path d="M0,20l100,0" style="stroke: black; stroke-width: 2px;"/><text style="font-family: Arial, sans-serif; font-size: 12px; font-weight: normal; fill: black;" lineHeight="1.2" class="djs-label" transform="translate(0, 0)"><tspan x="23.008333206176758" y="13.6">ACMESky</tspan></text></g><rect style="fill: none; stroke-opacity: 0; stroke: white; stroke-width: 15px;" class="djs-hit djs-hit-all" x="0" y="0" width="100" height="20"/><rect x="-6" y="-6" width="112" height="32" style="fill: none;" class="djs-outline"/></g><g class="djs-children"><g class="djs-group"><g class="djs-element djs-shape" data-element-id="Message_1vf4it8" transform="matrix(1, 0, 0, 1, 922.5, 245)" style="display: none;"><g class="djs-visual"><path d="M17.5,25l0,20" style="stroke: black; stroke-width: 2px; stroke-dasharray: 0px, 4px; stroke-linecap: round;"/><path d="M0,0l0,25l35,0l0,-25zM0,0l17.5,15l17.5,-15" style="stroke: black; stroke-width: 2px; fill: white; fill-opacity: 0.95;"/></g><rect style="fill: none; stroke-opacity: 0; stroke: white; stroke-width: 15px;" class="djs-hit djs-hit-all" x="0" y="0" width="35" height="25"/><rect x="-6" y="-6" width="47" height="37" style="fill: none;" class="djs-outline"/></g></g></g></g><g class="djs-group"><g class="djs-element djs-shape" data-element-id="Participant_08lr28o_ChoreographyTask_13smr82" transform="matrix(1, 0, 0, 1, 890, 350)" style="display: block;"><g class="djs-visual"><path d="M100,0l-100,0l0,10a10,10,0,0,0,10,10l80,0a10,10,0,0,0,10,-10z" style="fill: black; fill-opacity: 0.1725;"/><path d="M0,0l100,0" style="stroke: black; stroke-width: 2px;"/><text style="font-family: Arial, sans-serif; font-size: 12px; font-weight: normal; fill: black;" lineHeight="1.2" class="djs-label" transform="translate(0, 0)"><tspan x="8.25" y="13.6">Flight Company</tspan></text></g><rect style="fill: none; stroke-opacity: 0; stroke: white; stroke-width: 15px;" class="djs-hit djs-hit-all" x="0" y="0" width="100" height="20"/><rect x="-6" y="-6" width="112" height="32" style="fill: none;" class="djs-outline"/></g></g></g></g><g class="djs-group"><g class="djs-element djs-shape" data-element-id="Event_01zqjv0" transform="matrix(1, 0, 0, 1, 1062, 312)" style="display: block;"><g class="djs-visual"><circle cx="18" cy="18" r="18" style="stroke: black; stroke-width: 4px; fill: white; fill-opacity: 0.95;"/></g><rect style="fill: none; stroke-opacity: 0; stroke: white; stroke-width: 15px;" class="djs-hit djs-hit-all" x="0" y="0" width="36" height="36"/><rect x="-6" y="-6" width="48" height="48" style="fill: none;" class="djs-outline"/></g></g><g class="djs-group"><g class="djs-element djs-shape" data-element-id="Flow_18r7u33_label" transform="matrix(1, 0, 0, 1, 662, 312)" style="display: block;"><g class="djs-visual"><text style="font-family: Arial, sans-serif; font-size: 11px; font-weight: normal; fill: black;" lineHeight="1.2" class="djs-label"><tspan x="0" y="9.899999999999999">Yes</tspan></text></g><rect style="fill: none; stroke-opacity: 0; stroke: white; stroke-width: 15px;" class="djs-hit djs-hit-all" x="0" y="0" width="18" height="14"/><rect x="-6" y="-6" width="30" height="26" style="fill: none;" class="djs-outline"/></g></g><g class="djs-group"><g class="djs-element djs-shape" data-element-id="Flow_1tlluwv_label" transform="matrix(1, 0, 0, 1, 602, 283)" style="display: block;"><g class="djs-visual"><text style="font-family: Arial, sans-serif; font-size: 11px; font-weight: normal; fill: black;" lineHeight="1.2" class="djs-label"><tspan x="0" y="9.899999999999999">No</tspan></text></g><rect style="fill: none; stroke-opacity: 0; stroke: white; stroke-width: 15px;" class="djs-hit djs-hit-all" x="0" y="0" width="15" height="14"/><rect x="-6" y="-6" width="27" height="26" style="fill: none;" class="djs-outline"/></g></g></svg>